<svg xmlns="http://www.w3.org/2000/svg" version="1.1" xmlns:xlink="http://www.w3.org/1999/xlink" xmlns:svgjs="http://svgjs.com/svgjs" width="1000" height="1000"><rect width="1000" height="1000" rx="500" ry="500" fill="#ffffff"></rect><g transform="matrix(8,0,0,8,100.13912200927734,99.9708604812622)"><svg xmlns="http://www.w3.org/2000/svg" version="1.1" xmlns:xlink="http://www.w3.org/1999/xlink" xmlns:svgjs="http://svgjs.com/svgjs" width="100" height="100"><svg xmlns="http://www.w3.org/2000/svg" width="100" height="100" viewBox="0 0 100 100"><g style="isolation:isolate"><path d="M67.233,70.33c-2.929.021-5.667.021-5.667.021l.289,2.637a7.091,7.091,0,0,1-1.209,4.8,21.206,21.206,0,0,0-2.856,5.437,8.424,8.424,0,0,0,0,3.66L47.71,55.046,67.524,69.508Z" fill="#8389ff"></path><path d="M59.475,92.208s-2.621-5.741-1.685-8.986a21.2,21.2,0,0,1,2.857-5.438,7.1,7.1,0,0,0,1.209-4.8l-.291-2.638s11.421,0,12.544-.188,2.808-2.106,2.855-4.68-2.153-5.055-2.153-5.055a7.529,7.529,0,0,1,1.872-2.434,3.4,3.4,0,0,0-.936-1.872l1.264-2.059-.141-3.651s5.2-.711,3.932-4.034c-.76-2-6.3-7.48-6.319-9.446-.032-3.26,1.846-3.043,1.846-5.219-.633-5.375-3.712-9.147-6.338-13.133A20.677,20.677,0,0,0,60.375,10.8c-6.831-2.627-18.32-5.343-25.719-1.409C23.563,15.283,20.564,25,20.564,25A24.426,24.426,0,0,0,19.3,37.775c1.123,7.582,5.054,13.479,6.318,17.692S27.445,68.1,26.743,71.193s-4.353,6.319-4.353,6.319S47.352,74.329,59.475,92.208Z" fill="#e2e2e2" stroke="#1e1e1e" stroke-linecap="round" stroke-linejoin="bevel" stroke-width="1.916"></path><path d="M66.658,70.33c-2.929.021-5.667.021-5.667.021l.289,2.637a7.1,7.1,0,0,1-1.208,4.8,17.79,17.79,0,0,0-2.857,5.437c-.811,3.66,1.645,8.074,1.876,9.37L47.136,55.046,66.949,69.508Z" fill="#8c8c8c" style="mix-blend-mode:multiply"></path><polygon points="65.98 36.586 69.163 34.234 69.413 38.08 65.98 36.586" fill="#fff" stroke="#8389ff" stroke-linecap="round" stroke-linejoin="bevel" stroke-width="1.612"></polygon><path d="M69.256,38.055c-2.606-.327-2.823-1.494-2.823-1.494l-1.4.106s2.746-3.432,5.741-2.184" fill="#fff" stroke="#8c8c8c" stroke-linecap="round" stroke-linejoin="bevel" stroke-width="1.612"></path><ellipse cx="69.448" cy="36.369" rx="1.495" ry="0.547" transform="translate(28.203 103.037) rotate(-85.898)" fill="#fff" stroke="#8c8c8c" stroke-linecap="round" stroke-linejoin="bevel" stroke-width="1.612"></ellipse><line x1="47.789" y1="33.609" x2="74.314" y2="33.609" fill="none" stroke="#1e1e1e" stroke-linecap="round" stroke-linejoin="bevel" stroke-width="1.533"></line><line x1="67.525" y1="39.43" x2="69.803" y2="39.43" fill="#fff" stroke="#8c8c8c" stroke-linecap="round" stroke-linejoin="bevel" stroke-width="1.612"></line><path d="M72.268,47.463a1.924,1.924,0,0,0,.4,2.087,2.064,2.064,0,0,0,2.394.3l1-.529a3.311,3.311,0,0,1,1.14-.238" fill="none" stroke="#8c8c8c" stroke-linecap="round" stroke-linejoin="bevel" stroke-width="1.612"></path><path d="M48.46,39.6h0s-1.872,11.327-.749,15.445S62.033,75.733,69.8,75.733c4.618,0,7.334-3.29,8.778-5.96a6.631,6.631,0,0,0,.12-6.09,21.315,21.315,0,0,0-2.954-4.746l-.166.039a2.607,2.607,0,0,0-1.645,1.259.978.978,0,0,1-1.121.538,1.516,1.516,0,0,1-1.167-1.392c-.094-1.367.244-4.115,4.1-5.552.546-.2,1.092-.379,1.558-.517a.975.975,0,0,0,.527-1.484l-.962-1.416-3.051.991a6.418,6.418,0,0,0-4.09,4.023c-.537,1.563-1.208,3.517-1.83,5.33-.309.9-1.525-4.7-2.306-5.245l-6.072-4.266A13.283,13.283,0,0,1,54.7,44.989L53.51,39.6Z" fill="#1e1e1e" stroke="#1e1e1e" stroke-linecap="round" stroke-linejoin="bevel" stroke-width="1.533"></path><path d="M74.858,33.06s-1.774-2.635-5.957-1.921" fill="#fff" stroke="#8c8c8c" stroke-linecap="round" stroke-linejoin="bevel" stroke-width="1.612"></path><path d="M74.29,38.91c-.535,3.468-1.538,5.809-2.24,5.7s-.837-2.624-.3-6.092c.212-1.379.494-3.206.794-4.307.036-.135-.509-.464-.472-.575A3.516,3.516,0,0,1,73,33.084a1.643,1.643,0,0,1,1.966.4h0A37.951,37.951,0,0,1,74.29,38.91Z" fill="#fff" stroke="#1e1e1e" stroke-linecap="round" stroke-linejoin="bevel" stroke-width="1.612"></path><path d="M47.525,33.609H42.843a7.285,7.285,0,0,0-4.4-1.311c-2.809,0-4.213,4.026-4.213,5.523,0,3.277,3.183,12.45,8.612,12.45,2.481,0,2.575-1.123,2.575-1.123" fill="none" stroke="#8c8c8c" stroke-linecap="round" stroke-linejoin="bevel" stroke-width="1.612"></path></g></svg></svg></g></svg>